<svg width="48" height="48" viewBox="0 0 48 48" fill="none" xmlns="http://www.w3.org/2000/svg">
<path fill-rule="evenodd" clip-rule="evenodd" d="M45.5242 7.57895H40.4211V2.47579C40.4211 1.11158 39.3095 0 37.9453 0H37.8695C36.48 0 35.3684 1.11158 35.3684 2.47579V7.57895H30.2905C28.9263 7.57895 27.8147 8.69053 27.7895 10.0547V10.1305C27.7895 11.52 28.9011 12.6316 30.2905 12.6316H35.3684V17.7095C35.3684 19.0737 36.48 20.2105 37.8695 20.1853H37.9453C39.3095 20.1853 40.4211 19.0737 40.4211 17.7095V12.6316H45.5242C46.8884 12.6316 48 11.52 48 10.1558V10.0547C48 8.69053 46.8884 7.57895 45.5242 7.57895ZM32.8421 17.7095V15.1579H30.2905C28.9516 15.1579 27.6884 14.6274 26.7284 13.6926C25.7937 12.7326 25.2632 11.4695 25.2632 10.0547C25.2632 9.14526 25.5158 8.31158 25.9453 7.57895H5.05263C2.27368 7.57895 0 9.85263 0 12.6316V42.9474C0 45.7263 2.27368 48 5.05263 48H35.3684C38.1474 48 40.4211 45.7263 40.4211 42.9474V22.0295C39.6632 22.4589 38.8042 22.7368 37.8442 22.7368C35.0905 22.7116 32.8421 20.4632 32.8421 17.7095ZM7.57895 42.9474H32.7411C33.8021 42.9474 34.3832 41.7347 33.7263 40.9011L26.2737 31.6042C25.7684 30.9474 24.7832 30.9726 24.2779 31.6295L17.6842 40.4211L13.6421 34.3326C13.1368 33.6253 12.1011 33.5747 11.5705 34.2821L6.56842 40.9263C5.93684 41.76 6.54316 42.9474 7.57895 42.9474Z" fill="#F38744"/>
</svg>
